<?xml version="1.0" encoding="UTF-8" standalone="no"?>
<!-- Created with Inkscape (http://www.inkscape.org/) -->

<svg
   xmlns:dc="http://purl.org/dc/elements/1.1/"
   xmlns:cc="http://creativecommons.org/ns#"
   xmlns:rdf="http://www.w3.org/1999/02/22-rdf-syntax-ns#"
   xmlns:svg="http://www.w3.org/2000/svg"
   xmlns="http://www.w3.org/2000/svg"
   xmlns:sodipodi="http://sodipodi.sourceforge.net/DTD/sodipodi-0.dtd"
   xmlns:inkscape="http://www.inkscape.org/namespaces/inkscape"
   id="svg2816"
   version="1.1"
   inkscape:version="0.47 r22583"
   width="1024"
   height="1346"
   sodipodi:docname="Atari Games Logo">
  <title
     id="title2830">Atari Games Logo</title>
  <metadata
     id="metadata2822">
    <rdf:RDF>
      <cc:Work
         rdf:about="">
        <dc:format>image/svg+xml</dc:format>
        <dc:type
           rdf:resource="http://purl.org/dc/dcmitype/StillImage" />
        <dc:title>Atari Games Logo</dc:title>
      </cc:Work>
    </rdf:RDF>
  </metadata>
  <defs
     id="defs2820" />
  <sodipodi:namedview
     pagecolor="#ffffff"
     bordercolor="#666666"
     borderopacity="1"
     objecttolerance="10"
     gridtolerance="10"
     guidetolerance="10"
     inkscape:pageopacity="0"
     inkscape:pageshadow="2"
     inkscape:window-width="640"
     inkscape:window-height="481"
     id="namedview2818"
     showgrid="false"
     inkscape:zoom="0.35066865"
     inkscape:cx="783.74363"
     inkscape:cy="858.86804"
     inkscape:window-x="1881"
     inkscape:window-y="174"
     inkscape:window-maximized="0"
     inkscape:current-layer="svg2816" />
  <path
     style="fill:#000000"
     d="m 49.024244,1334.4603 c -14.143138,-3.9643 -23.652028,-14.1677 -27.689322,-29.7117 -1.988853,-7.6574 -2.198511,-24.1698 -0.403108,-31.7486 3.387194,-14.298 12.172909,-25.783 24.016728,-31.3954 6.196381,-2.9363 7.201836,-3.1046 18.551458,-3.1046 13.784019,0 19.355901,1.5303 27.238999,7.4812 4.729514,3.5703 10.335971,12.6894 11.846471,19.2688 l 0.63135,2.75 -5.972554,0 -5.97255,0 -1.65261,-4.3273 c -1.807569,-4.733 -6.443313,-10.0133 -10.743229,-12.2369 -1.510133,-0.7809 -5.812488,-1.9373 -9.560787,-2.5697 -15.645815,-2.6397 -28.71553,4.9238 -34.790891,20.1339 -2.372536,5.9398 -3.220838,23.0051 -1.537801,30.9359 2.89556,13.6445 11.085126,22.6916 22.728972,25.1088 19.182118,3.9822 35.625382,-6.9627 37.045817,-24.6584 L 93.273821,1294 78.63691,1294 64,1294 l 0,-5 0,-5 20.51747,0 20.51747,0 -0.26747,24.75 -0.26747,24.75 -3.63739,0.3037 c -3.631567,0.3031 -3.639378,0.2951 -4.881872,-5 -0.684467,-2.9171 -1.441596,-5.6491 -1.68251,-6.0713 -0.240914,-0.4222 -2.857475,1.2994 -5.81458,3.8257 -2.957106,2.5264 -7.763151,5.5149 -10.680102,6.6413 -7.086246,2.7364 -21.294419,3.3589 -28.779302,1.2609 z m 864.751706,0.061 c -12.89347,-3.5491 -21.23355,-12.8654 -22.49972,-25.1333 l -0.55604,-5.3875 5.52862,0 5.52861,0 0.69478,3.7035 c 2.24763,11.9809 11.04005,18.2965 25.47203,18.2965 8.74314,0 16.36465,-2.3397 20.76876,-6.3758 2.99577,-2.7454 3.62399,-4.0758 4.05814,-8.5941 0.67298,-7.0038 -1.54182,-11.2566 -7.31879,-14.0532 -2.33839,-1.132 -11.52368,-3.8444 -20.41175,-6.0277 -8.88808,-2.1832 -17.87663,-4.8452 -19.97457,-5.9155 -7.9532,-4.0574 -11.63503,-11.3563 -10.82418,-21.4578 1.21943,-15.1914 11.99757,-24.425 29.63024,-25.3841 21.52979,-1.1711 35.93275,7.9212 37.82243,23.8766 l 0.58407,4.9316 -5.60074,0 -5.60075,0 -1.0263,-3.75 c -3.10896,-11.3599 -13.34431,-16.6932 -28.42132,-14.8094 -12.12608,1.515 -19.50737,11.6924 -15.14596,20.8834 2.3113,4.8707 6.79471,6.8531 25.5231,11.2856 18.09331,4.2821 22.68075,6.1951 27.41026,11.4301 4.35223,4.8174 5.98038,10.6198 5.23843,18.6688 -1.19575,12.972 -7.85677,19.7647 -23.3349,23.7963 -6.91125,1.8001 -21.03309,1.8083 -27.54445,0.016 z M 238.95309,1333.25 c -0.0258,-0.4125 7.7367,-21.5556 17.25,-46.9847 l 17.29691,-46.2348 7,-0.013 7,-0.013 16.75,46.2758 c 9.2125,25.4517 16.75,46.6008 16.75,46.9979 0,0.3972 -2.87894,0.7221 -6.39763,0.7221 l -6.39764,0 -4.85236,-14.25 -4.85237,-14.25 -18.67001,-0.2718 -18.67,-0.2717 -1.9575,5.2717 c -1.07663,2.8995 -3.45724,9.4343 -5.29024,14.5218 l -3.33274,9.25 -5.78975,0 c -3.18437,0 -5.81087,-0.3375 -5.83667,-0.75 z M 294,1294.5601 c 0,-1.6245 -12.61135,-38.5048 -13.45551,-39.3489 -0.29947,-0.2995 -0.80458,-0.2844 -1.12246,0.033 -0.88338,0.8838 -14.42203,37.8823 -14.42203,39.413 0,1.062 3.03235,1.3428 14.5,1.3428 11.95344,0 14.5,-0.2529 14.5,-1.4399 z M 455,1287 l 0,-47 9,0 c 4.95,0 9,0.4039 9,0.8974 0,2.0709 26.31401,78.1219 26.84634,77.5896 0.32068,-0.3207 6.48904,-17.9989 13.70746,-39.285 l 13.12441,-38.702 8.6609,-0.2889 8.66089,-0.289 0,47.039 0,47.0389 -5.5,0 -5.5,0 -0.096,-39.25 c -0.0887,-36.2511 -0.21381,-38.9826 -1.63733,-35.75 -0.8477,1.925 -6.99198,19.475 -13.65395,39 l -12.11267,35.5 -6,0 -6,0 -12.5,-36.5917 c -6.875,-20.1254 -13.03204,-37.6754 -13.68232,-39 -0.9317,-1.8978 -1.19667,5.9117 -1.25,36.8417 L 466,1334 l -5.5,0 -5.5,0 0,-47 z m 232,0.013 0,-47.0131 34,0 34,0 0,5.5 0,5.5 -28,0 -28,0 0,14.5 0,14.5 25.5,0 25.5,0 0,5 0,5 -25.5,0 -25.5,0 0,16.5 0,16.5 28.55226,0 28.55226,0 -0.30226,5.25 -0.30226,5.25 -34.25,0.2631 -34.25,0.2632 0,-47.0132 z M 13.441439,1167.2671 C 13.808203,1165.7452 33.476146,1095.65 57.147978,1011.5 90.897503,891.52523 100.95244,857.03766 103.73071,851.72525 c 4.2871,-8.19749 12.25541,-15.83241 18.98379,-18.18953 6.65869,-2.33271 18.74184,-3.05345 26.53584,-1.58283 11.8872,2.24296 20.12687,8.80006 26.15828,20.8167 2.35268,4.68734 13.47055,43.56388 74.56343,260.73041 l 15.75382,56 -25.51242,0.2672 c -14.03183,0.1469 -25.6969,0.083 -25.92238,-0.1428 -0.22548,-0.2255 -5.71623,-19.4707 -12.20167,-42.7672 l -11.79171,-42.3572 -51.01428,-0.259 -51.014283,-0.259 -5.674654,20.259 c -3.12106,11.1424 -8.488384,30.384 -11.927386,42.759 l -6.252733,22.5 -25.819879,0.2671 -25.81988,0.2671 0.666844,-2.7671 z M 175.67488,1033.25 c -1.03397,-4.944 -35.57918,-124.48763 -36.13435,-125.0428 -0.29729,-0.29729 -0.71062,-0.35303 -0.9185,-0.12387 -0.20789,0.22917 -8.3274,28.31667 -18.04336,62.41667 -9.71597,34.1 -17.9012,62.7875 -18.18942,63.75 -0.49249,1.6447 1.71408,1.75 36.66836,1.75 l 37.19239,0 -0.57512,-2.75 z M 301,1025.5 301,881 l -35,0 -35,0 0,-25 0,-25 95.5,0 95.5,0 0,24.98721 0,24.9872 -35.25,0.2628 -35.25,0.26279 -0.25338,144.25 -0.25338,144.25 -24.99662,0 -24.99662,0 0,-144.5 z m 90,143.7295 c 0,-0.4424 19.55901,-70.3061 43.46447,-155.2527 32.3083,-114.80564 44.37431,-156.28937 47.00919,-161.62067 4.25781,-8.6151 12.15235,-16.33714 19.24084,-18.82041 6.65869,-2.33271 18.74184,-3.05345 26.53584,-1.58283 11.87258,2.2402 20.12819,8.80217 26.13727,20.77522 1.44314,2.87546 6.40952,18.62546 11.03639,35 4.62688,16.37454 24.21922,85.92454 43.53856,154.55559 19.31933,68.631 35.37926,125.4435 35.68874,126.25 0.48555,1.2653 -3.01311,1.4663 -25.52526,1.4663 l -26.08794,0 -0.63665,-2.5366 c -0.35017,-1.3952 -5.69197,-20.6327 -11.87067,-42.75 l -11.23402,-40.2134 -50.33902,-0.2594 c -29.615,-0.1525 -50.71701,0.1187 -51.25716,0.6588 -0.50497,0.505 -6.17601,19.7467 -12.60231,42.7594 l -11.68418,41.8412 -25.70705,0.2669 C 402.56817,1169.9137 391,1169.6718 391,1169.2295 z M 553.6677,1033.25 c -1.15922,-5.4746 -35.47002,-124.38565 -36.06098,-124.97661 -0.33369,-0.3337 -0.76805,-0.41922 -0.96524,-0.19006 -0.19719,0.22917 -8.31982,28.31667 -18.0503,62.41667 -9.73047,34.1 -17.92446,62.7875 -18.20886,63.75 -0.48594,1.6446 1.72365,1.75 36.67529,1.75 l 37.19239,0 -0.5823,-2.75 z m 118.34966,-13.5 c 0.0188,-162.39646 -0.13031,-157.67338 5.31603,-168.42122 3.03119,-5.98176 10.22953,-12.80555 16.37701,-15.52488 8.90796,-3.94041 17.85772,-4.73215 53.90861,-4.76901 25.89053,-0.0265 36.1828,0.325 42.67641,1.4574 29.71284,5.18148 54.00968,23.65048 66.65114,50.66419 13.98671,29.88841 12.87911,74.5918 -2.54572,102.74717 -7.64429,13.95332 -17.00838,23.21855 -33.1432,32.79335 -13.08815,7.7668 -16.08729,9.9849 -18.32789,13.5547 -2.46604,3.929 -2.05357,9.6251 1.15199,15.9085 1.16552,2.2846 19.65509,30.452 41.08793,62.5943 21.43285,32.1422 38.82515,58.5444 38.64957,58.6716 -0.17558,0.1273 -13.36924,0.03 -29.31924,-0.2152 l -29,-0.4465 -39.14313,-59.1322 c -21.52873,-32.5227 -40.12585,-61.0946 -41.32694,-63.4932 -7.45454,-14.8864 -5.51659,-34.7321 4.3506,-44.5527 2.96618,-2.95218 7.57891,-5.62156 16.47632,-9.53482 21.41568,-9.41907 32.98028,-17.67885 41.31108,-29.50561 6.75321,-9.58714 9.28091,-18.10607 9.21182,-31.04587 -0.1452,-27.19539 -12.13686,-44.37292 -34.24868,-49.05975 -4.48915,-0.95152 -13.50545,-1.41113 -27.91319,-1.42289 -23.85086,-0.0195 -26.78255,0.5799 -30.19225,6.17246 -1.99874,3.27834 -2.01819,4.65451 -2.02189,143.06018 L 722,1170 l -25,0 -25,0 0.0174,-150.25 z M 913,1000.5 913,831 l 25,0 25,0 0,169.5 0,169.5 -25,0 -25,0 0,-169.5 z m 73.42926,-183.39281 c -14.57379,-6.61927 -16.03275,-26.9881 -2.59271,-36.19737 2.96337,-2.03053 4.72236,-2.40982 11.17568,-2.40982 6.73557,0 8.13947,0.33314 11.64687,2.76374 10.1487,7.03305 12.0525,21.30044 4.0574,30.40637 -6.1316,6.98347 -16.01237,9.19544 -24.28724,5.43708 z m 13.67154,-1.26014 c 8.9626,-3.03996 13.3736,-9.61143 12.7003,-18.92073 C 1011.9,784.46925 999.63758,776.78198 988.25448,781.53814 981.03827,784.55326 977,790.73429 977,798.76438 c 0,8.11634 4.88875,14.23955 14,17.53516 2.51117,0.90831 5.53149,0.75814 9.1008,-0.45249 z M 987,798.5 l 0,-12.5 5.80887,0 c 7.34603,0 9.59113,1.52425 9.59113,6.51167 0,2.71925 -0.6404,4.26455 -2.3363,5.63783 -2.11354,1.71144 -2.19177,2.05669 -0.82058,3.62116 1.51598,1.72965 4.75688,7.6432 4.75688,8.67968 0,0.30231 -0.6712,0.54966 -1.4915,0.54966 -0.8202,0 -2.8882,-2.475 -4.59541,-5.5 -2.06271,-3.65492 -3.74292,-5.5 -5.00855,-5.5 -1.64187,0 -1.90454,0.75856 -1.90454,5.5 0,4.83333 -0.24242,5.5 -2,5.5 -1.89333,0 -2,-0.66667 -2,-12.5 z m 10.42857,-2.07143 C 1000.9406,792.91656 998.39565,788 993.06574,788 991.25352,788 991,788.61363 991,793 c 0,4.62745 0.18095,5 2.42857,5 1.33572,0 3.13572,-0.70714 4,-1.57143 z M 26,705.10265 l 0,-56.89734 6.75,-1.14741 c 21.130219,-3.59184 52.599576,-13.01007 73.93987,-22.1289 67.92943,-29.02664 128.24726,-82.68712 178.55655,-158.84906 13.66205,-20.68262 27.34192,-51.96589 37.25651,-85.19855 C 347.09157,298.46284 360.95425,178.83197 360.98992,48.75 L 361,12 l 28.66399,0 28.66399,0 -0.66251,87.25 C 416.21298,290.53547 410.99754,370.75262 395.51956,439.86959 382.47382,498.12542 356.61948,553.91257 323.39325,595.5 312.36704,609.30091 280.18583,641.63396 265,654.16879 205.77178,703.05748 140.2596,737.30517 74.291326,753.86525 59.66329,757.53734 34.584682,762 28.576839,762 L 26,762 26,705.10265 z M 441,387 l 0,-375 54.5,0 54.5,0 0,375 0,375 -54.5,0 -54.5,0 0,-375 z M 948,760.35732 C 843.46863,744.44167 723.56083,671.35582 658.45535,583.8749 630.83101,546.75663 606.90898,492.07554 595.07509,439 579.38716,368.63888 573.0564,263.39686 573.01352,72.25 L 573,12 l 28.5,0 28.5,0 0,40.764081 c 0,185.839789 27.74052,339.056259 74.58416,411.943349 27.11605,42.19162 64.17145,83.79202 100.66694,113.01413 43.54844,34.86944 99.09616,60.03715 152.9989,69.32116 l 6.75,1.16259 0,56.89734 0,56.89735 -3.75,-0.0981 c -2.0625,-0.054 -8.025,-0.74902 -13.25,-1.54456 z"
     id="path2828" />
</svg>
